# xmcd
#
# Track frame offsets:
#	150
#	11270
#	23235
#	34815
#	45725
#	54730
#	65872
#	77040
#	84390
#	96342
#	108682
#	122492
#	134882
#	145982
#	159527
#	172425
#
# Disc length: 2378 seconds
#
# Revision: 2
# Processed by: cddbd v1.5.1PL0 Copyright (c) Steve Scherf et al.
# Submitted via: audiograbber 1.83.01
#
DISCID=ea094810
DTITLE=Hank WILLIAMS - Low Down Blues
DYEAR=1996
DGENRE=Country
TTITLE0=(I Heard That) Lonesome Whistle
TTITLE1=Long Gone Lonesome Blues
TTITLE2=My Buckit's Got A Hole In It
TTITLE3=Moanin' The Blues
TTITLE4=Honky Tonk Blues
TTITLE5=First Year Blues
TTITLE6=Weary Blues From Waitin'
TTITLE7=Wearing Out Your Walkin' Shoes
TTITLE8=Why Should We Try Anymore
TTITLE9=My Sweet Love Ain't Around
TTITLE10=Ramblin' Man
TTITLE11=Lovesick Blues
TTITLE12=I'll Never Get Out Of This World Alive
TTITLE13=I'd Still Want You
TTITLE14=Please Make Up Your Mind
TTITLE15=Low Down Blues
EXTD=
EXTT0=
EXTT1=
EXTT2=
EXTT3=
EXTT4=
EXTT5=
EXTT6=
EXTT7=
EXTT8=
EXTT9=
EXTT10=
EXTT11=
EXTT12=
EXTT13=
EXTT14=
EXTT15=
PLAYORDER=
